<?xml version="1.0" encoding="UTF-8"?>
<svg width="110px" height="29px" viewBox="0 0 110 29" version="1.1" xmlns="http://www.w3.org/2000/svg" xmlns:xlink="http://www.w3.org/1999/xlink">
    <title>Group 22</title>
    <g id="Page-1" stroke="none" stroke-width="1" fill="none" fill-rule="evenodd">
        <g id="Group-22" transform="translate(0.000000, 0.667879)">
            <text id="B-mCard" font-family="Inter-Regular_Bold, Inter" font-size="22" font-weight="bold" letter-spacing="-0.0088" fill="#000000">
                <tspan x="0" y="22.3321214">B     mCard</tspan>
            </text>
            <g id="Group-19-Copy" transform="translate(10.363084, 0.000000)">
                <g id="Group-6-Copy-8" transform="translate(8.822203, 8.300843) rotate(-8.000000) translate(-8.822203, -8.300843) translate(3.165794, 2.567486)" fill="#F20000">
                    <path d="M5.52940834,0.645938674 C7.98425037,0.645938674 10.0148985,2.54334842 10.3507188,5.01086892 C10.3828377,5.24687016 10.399453,5.48808655 10.3994155,5.73335682 C10.3994292,5.76454795 10.5909323,6.42976784 10.4950018,6.44385188 C10.1065274,6.50088573 10.679997,7.09178746 10.6524503,7.25364516 C10.5966945,7.58125224 10.1903395,6.9997909 10.1022832,7.14476086 C9.93125847,7.42632474 9.74094845,7.00676008 9.696003,7.20440889 C9.59767315,7.63681702 10.0181963,7.75703126 9.82171526,8.13883067 C9.72397054,8.32876699 9.29277027,7.99997718 9.32133429,8.21229409 C9.39068405,8.72777225 9.04105935,9.2783868 8.77043315,9.53063103 C7.90951567,10.3330717 6.77398265,10.820775 5.52940834,10.820775 C4.11795225,10.820775 2.13732086,10.5295247 1.95728034,9.19127998 C1.83598989,8.28972557 1.71732221,8.31654237 1.60652664,8.40860725 L1.56535755,8.44450429 C1.51098479,8.49194959 1.4587441,8.5287343 1.40929163,8.44696804 C1.27809391,8.23004158 1.33361191,7.38533634 1.2345214,7.1478974 C1.15848495,6.96570017 0.920914867,7.39464785 0.865424259,7.20208639 C0.73141947,6.73706793 0.659401223,6.24399822 0.659401223,5.73335682 C0.659401223,2.92365336 2.83977768,0.645938674 5.52940834,0.645938674 Z M5.61057513,3.90080957 C4.68656602,3.90080957 3.93750864,4.68330701 3.93750864,5.64856652 C3.93750864,6.61382603 4.68656602,7.39632347 5.61057513,7.39632347 C6.53458423,7.39632347 7.28364161,6.61382603 7.28364161,5.64856652 C7.28364161,4.68330701 6.53458423,3.90080957 5.61057513,3.90080957 Z" id="Combined-Shape" transform="translate(5.656409, 5.733357) rotate(8.000000) translate(-5.656409, -5.733357) "></path>
                </g>
                <g id="Group-6-Copy-9" transform="translate(21.799227, 20.432539) rotate(-8.000000) translate(-21.799227, -20.432539) translate(15.380057, 13.770752)" fill="#F20000">
                    <path d="M4.47565401,0.793713454 C4.96947827,0.646364259 5.88008628,0.794223007 6.41919575,0.794223007 C9.53868728,0.794223007 12.0675348,3.43596552 12.0675348,6.69472007 C12.0675348,9.95347461 9.53868728,12.5952171 6.41919575,12.5952171 C3.29970423,12.5952171 0.770804375,9.95347461 0.770804375,6.69472007 C0.770804375,5.56935479 0.81880873,4.29443686 1.34215162,3.39962347 C1.39339106,3.31201411 1.79712568,4.27158649 1.89389947,4.22344989 C1.90062324,4.22010539 1.86181471,3.9645024 1.82441436,3.70696572 C1.80144184,3.54877821 1.77214144,3.33973633 1.77452599,3.33614444 C1.84568007,3.22896397 2.23632312,3.78222167 2.19044311,3.65322722 C2.08445532,3.3552361 1.40376644,2.35351623 1.61487898,2.14948496 C1.78785063,1.98231523 2.00736486,2.14668669 2.36504391,2.03934951 C2.48354687,2.00378754 2.52380995,1.54414723 2.65401897,1.49475739 C3.19994602,1.28768075 3.89231629,1.40470713 4.19761861,1.26813385 C4.41342147,1.17159706 4.24700491,0.86193866 4.47565401,0.793713454 Z M6.52953304,4.35438073 C5.1415734,4.35438073 4.38208972,4.97074217 4.38208972,6.42066429 C4.38208972,7.87058641 4.72016724,8.70083541 6.10812688,8.70083541 C7.49608652,8.70083541 8.45138441,8.09931086 8.45138441,6.64938873 C8.45138441,5.19946661 7.91749268,4.35438073 6.52953304,4.35438073 Z" id="Combined-Shape" transform="translate(6.419170, 6.661787) rotate(8.000000) translate(-6.419170, -6.661787) "></path>
                </g>
                <path d="M0.0700023996,12.4222808 L25.7028097,11.9161825 C26.1388294,11.884407 26.652446,11.9049482 27.2436595,11.9778059 C27.834873,12.0506636 28.0015899,12.1457936 27.7438102,12.2631959 L28.3833906,12.4064241 C28.6079856,12.7477035 28.7179825,13.0165043 28.7133815,13.2128267 C28.7111037,13.3100201 27.2804235,13.311377 27.6745768,13.5139107 C27.8479564,13.603001 29.8476752,13.6958106 30.0453278,13.8604266 C30.1172404,13.9203194 30.228724,14.0214059 30.3797786,14.1636862 C32.1573678,14.6293373 32.7838057,15.130942 32.2590924,15.6685003 C24.166152,15.7885537 12.2259452,15.9632571 -3.56152799,16.1926102 L-3.3760039,15.6102282 C-2.75471298,15.5973466 -2.54114276,15.5545393 -2.73529323,15.4818062 C-3.02651893,15.3727066 -3.24222173,15.1354727 -3.0420399,14.9077859 C-2.84185807,14.6800992 -2.94356407,14.7444033 -2.67046236,14.6632418 C3.66076556,14.5486409 -1.12947964,14.2069077 -0.960045203,14.0202275 C-0.790610761,13.8335473 -1.38497982,13.7092719 -1.27430763,13.6074584 C-1.25991378,13.5942167 -1.09331932,13.4219862 -0.977874874,13.4123688 C-0.00875367975,13.3316337 3.36449847,13.4870938 -0.66971337,13.0694647 C-1.30158345,13.0040524 -0.282484719,12.7495578 -0.279034381,12.6233657 C-0.276784083,12.5410636 -0.160438489,12.4740354 0.0700023996,12.4222808 Z" id="Rectangle-Copy-16" fill="#FF7C02" transform="translate(14.438472, 14.047159) rotate(-44.000000) translate(-14.438472, -14.047159) "></path>
            </g>
        </g>
    </g>
</svg>