<?xml version="1.0" encoding="UTF-8"?>
<svg width="874px" height="857px" viewBox="0 0 874 857" version="1.1" xmlns="http://www.w3.org/2000/svg" xmlns:xlink="http://www.w3.org/1999/xlink">
    <title>Group 2 Copy 3</title>
    <defs>
        <path d="M121.155521,14.2760565 C175.235837,14.2760565 219.971135,54.313646 227.369277,106.381246 C228.076858,111.361152 228.442894,116.451103 228.442067,121.626596 C228.44237,122.284765 232.661195,136.321692 230.54784,136.618881 C225.669715,137.304866 227.676768,141.650928 230.192414,145.894209 L230.458821,146.340328 C230.637312,146.637271 230.817205,146.933058 230.996297,147.226387 L231.264059,147.664377 C232.819287,150.206671 234.228839,152.511091 234.01644,153.706477 C233.38833,157.241481 230.740523,155.760422 228.043467,153.878033 L227.68374,153.625075 C225.22598,151.885813 222.800036,149.983656 221.896227,151.40889 C218.128541,157.350221 213.936,148.49691 212.945849,152.667534 C210.779636,161.791857 220.043786,164.328519 215.715298,172.384938 C213.561976,176.392819 204.062608,169.454965 204.691875,173.935103 C206.219654,184.812302 198.517401,196.43092 192.55549,201.753572 C173.589427,218.686018 148.573567,228.977135 121.155521,228.977135 C90.0610588,228.977135 46.4276313,222.83141 42.4613281,194.592863 C39.7258313,175.117182 37.0508915,176.172794 34.5605887,178.218045 L34.2061006,178.514846 C34.1668555,178.548103 34.1276585,178.581374 34.08851,178.614583 L33.8542049,178.81245 C32.6466769,179.824381 31.4867157,180.625306 30.3891042,178.887001 C27.4988105,174.309596 28.7218754,156.485317 26.5389056,151.475075 C24.863818,147.630498 19.6301349,156.681801 18.4076735,152.618526 C15.4555401,142.806087 13.8689738,132.401733 13.8689738,121.626596 C13.8689738,62.33853 61.9027969,14.2760565 121.155521,14.2760565 Z M122.94363,82.9576814 C102.587654,82.9576814 86.0858754,99.4693028 86.0858754,119.83742 C86.0858754,140.205537 102.587654,156.717158 122.94363,156.717158 C143.299605,156.717158 159.801384,140.205537 159.801384,119.83742 C159.801384,99.4693028 143.299605,82.9576814 122.94363,82.9576814 Z" id="path-1"></path>
        <filter x="-41.3%" y="-41.5%" width="182.6%" height="184.8%" filterUnits="objectBoundingBox" id="filter-2">
            <feMorphology radius="15" operator="dilate" in="SourceAlpha" result="shadowSpreadOuter1"></feMorphology>
            <feOffset dx="0" dy="2" in="shadowSpreadOuter1" result="shadowOffsetOuter1"></feOffset>
            <feGaussianBlur stdDeviation="15" in="shadowOffsetOuter1" result="shadowBlurOuter1"></feGaussianBlur>
            <feColorMatrix values="0 0 0 0 0   0 0 0 0 0   0 0 0 0 0  0 0 0 0.91368007 0" type="matrix" in="shadowBlurOuter1"></feColorMatrix>
        </filter>
        <path d="M97.831882,17.4784832 C108.71086,14.3692409 128.771608,17.4892353 140.648222,17.4892353 C209.370806,17.4892353 265.081468,73.2331264 265.081468,141.996701 C265.081468,210.760275 209.370806,266.504166 140.648222,266.504166 C71.9256382,266.504166 16.2138239,210.760275 16.2138239,141.996701 C16.2138239,118.250163 17.2713627,91.3478868 28.8006377,72.4662661 C29.3265596,71.6049581 31.5381463,75.5402249 33.9661161,79.8867689 L34.3228029,80.5252754 C34.5613965,80.952225 34.8013674,81.3810532 35.0413514,81.8076876 L35.4011665,82.445485 C37.7378113,86.5738564 40.010842,90.3001349 40.9556757,89.8499777 C41.0867094,89.7875479 40.4327891,85.5596715 39.7097724,80.8229206 L39.6151328,80.2024982 C39.551857,79.7873601 39.4882941,79.3695763 39.4249147,78.951551 C38.9188286,75.6136076 38.273339,71.2025766 38.3258709,71.1267834 C39.8933995,68.8651488 48.4992891,80.5395407 47.4885497,77.8176051 C45.1536326,71.52964 30.1580159,50.3921662 34.8088377,46.0868652 C38.6194135,42.5593862 43.455325,46.0278184 51.3350159,43.762877 C52.6125569,43.3956601 53.477332,40.8854893 54.3635463,38.2955296 L54.5955045,37.6194345 C55.4498948,35.1437309 56.3584457,32.7591701 57.7011536,32.2713393 C69.7279591,27.9017773 84.9809172,30.3711722 91.7067455,27.4893144 C93.7575553,26.6105911 94.2414933,24.8950339 94.5330875,23.1125715 L94.608877,22.625365 C94.9377643,20.4306774 95.1651537,18.2406415 97.831882,17.4784832 Z M142.72211,84.5242993 C112.145276,84.5242993 87.3578552,109.326505 87.3578552,139.921576 C87.3578552,170.516648 112.145276,195.318854 142.72211,195.318854 C173.298943,195.318854 198.086364,170.516648 198.086364,139.921576 C198.086364,109.326505 173.298943,84.5242993 142.72211,84.5242993 Z" id="path-3"></path>
        <filter x="-36.6%" y="-35.5%" width="173.1%" height="172.6%" filterUnits="objectBoundingBox" id="filter-4">
            <feMorphology radius="15" operator="dilate" in="SourceAlpha" result="shadowSpreadOuter1"></feMorphology>
            <feOffset dx="0" dy="2" in="shadowSpreadOuter1" result="shadowOffsetOuter1"></feOffset>
            <feGaussianBlur stdDeviation="15" in="shadowOffsetOuter1" result="shadowBlurOuter1"></feGaussianBlur>
            <feColorMatrix values="0 0 0 0 0   0 0 0 0 0   0 0 0 0 0  0 0 0 0.91368007 0" type="matrix" in="shadowBlurOuter1"></feColorMatrix>
        </filter>
        <path d="M-1.08688465,239.156757 L513.362295,239.319809 C522.102436,238.823355 532.424938,239.487803 544.329798,241.313151 C556.234659,243.1385 559.626342,245.26049 554.504848,247.679122 L567.413536,251.0418 C572.081611,258.493158 574.415018,264.333159 574.413758,268.561802 C574.413135,270.65528 545.686973,270.066702 553.695228,274.601394 C557.21789,276.596109 597.413553,279.459651 601.45865,283.092383 C602.93039,284.414092 605.215802,286.64059 608.314886,289.771877 C644.223439,300.574012 657.034581,311.653817 646.748312,323.011292 C484.304953,322.103549 244.637256,320.71209 -72.2547785,318.836914 L-68.7999354,306.36704 C-56.3309426,306.357745 -52.0625108,305.527499 -55.9946399,303.876303 C-61.8928337,301.399509 -66.3340686,296.194108 -62.4202769,291.374039 C-58.5064852,286.553969 -60.5188044,287.895765 -55.0728355,286.264717 C71.9994261,286.529189 -24.3430765,277.096438 -21.0276317,273.146757 C-17.7121869,269.197076 -29.7042749,266.262344 -27.5293326,264.116115 C-27.2464632,263.836979 -23.9813356,260.197456 -21.6677773,260.04006 C-2.24615502,258.718767 65.5579209,263.525532 -15.6393281,252.783753 C-28.3570818,251.101291 -8.01260633,246.057167 -8.0018995,243.339291 C-7.99491654,241.566702 -5.68991159,240.172523 -1.08688465,239.156757 Z" id="path-5"></path>
        <filter x="-10.6%" y="-82.9%" width="120.5%" height="270.6%" filterUnits="objectBoundingBox" id="filter-6">
            <feMorphology radius="8.5" operator="dilate" in="SourceAlpha" result="shadowSpreadOuter1"></feMorphology>
            <feOffset dx="0" dy="2" in="shadowSpreadOuter1" result="shadowOffsetOuter1"></feOffset>
            <feGaussianBlur stdDeviation="15" in="shadowOffsetOuter1" result="shadowBlurOuter1"></feGaussianBlur>
            <feColorMatrix values="0 0 0 0 0   0 0 0 0 0   0 0 0 0 0  0 0 0 0.91368007 0" type="matrix" in="shadowBlurOuter1"></feColorMatrix>
        </filter>
    </defs>
    <g id="Page-1" stroke="none" stroke-width="1" fill="none" fill-rule="evenodd">
        <g id="Group-29" transform="translate(-1684.781375, -1297.450611)" fill-rule="nonzero">
            <g id="Group-27-Copy-4" transform="translate(1469.484808, 1376.000000)">
                <g id="Group-2-Copy-3" transform="translate(647.108787, 343.987408) rotate(-11.000000) translate(-647.108787, -343.987408) translate(346.082103, 52.075353)">
                    <g id="Group-6-Copy-8" transform="translate(157.224472, 168.329968) rotate(-8.000000) translate(-157.224472, -168.329968) translate(33.271118, 46.703372)">
                        <g id="Combined-Shape" transform="translate(123.953354, 121.626596) rotate(8.000000) translate(-123.953354, -121.626596) ">
                            <use fill="black" fill-opacity="1" filter="url(#filter-2)" xlink:href="#path-1"></use>
                            <use fill="#90AEC4" xlink:href="#path-1"></use>
                        </g>
                    </g>
                    <g id="Group-6-Copy-9" transform="translate(443.109089, 424.323108) rotate(-8.000000) translate(-443.109089, -424.323108) translate(302.461443, 283.021335)">
                        <g id="Combined-Shape" transform="translate(140.647646, 141.301773) rotate(8.000000) translate(-140.647646, -141.301773) ">
                            <use fill="black" fill-opacity="1" filter="url(#filter-4)" xlink:href="#path-3"></use>
                            <use fill="#EED58C" xlink:href="#path-3"></use>
                        </g>
                    </g>
                    <g id="Rectangle-Copy-16" transform="translate(288.964611, 281.084025) rotate(-44.000000) translate(-288.964611, -281.084025) ">
                        <use fill="black" fill-opacity="1" filter="url(#filter-6)" xlink:href="#path-5"></use>
                        <use fill="#968F90" xlink:href="#path-5"></use>
                    </g>
                </g>
            </g>
        </g>
    </g>
</svg>