<svg xmlns="http://www.w3.org/2000/svg" viewBox="0 0 200 200">
  <!-- QR Code Pattern Placeholder -->
  <rect fill="white" width="200" height="200"/>

  <!-- Corner squares -->
  <rect x="10" y="10" width="50" height="50" fill="black"/>
  <rect x="20" y="20" width="30" height="30" fill="white"/>
  <rect x="25" y="25" width="20" height="20" fill="black"/>

  <rect x="140" y="10" width="50" height="50" fill="black"/>
  <rect x="150" y="20" width="30" height="30" fill="white"/>
  <rect x="155" y="25" width="20" height="20" fill="black"/>

  <rect x="10" y="140" width="50" height="50" fill="black"/>
  <rect x="20" y="150" width="30" height="30" fill="white"/>
  <rect x="25" y="155" width="20" height="20" fill="black"/>

  <!-- Pattern blocks -->
  <rect x="70" y="10" width="10" height="10" fill="black"/>
  <rect x="85" y="10" width="10" height="10" fill="black"/>
  <rect x="100" y="10" width="10" height="10" fill="black"/>
  <rect x="115" y="10" width="10" height="10" fill="black"/>

  <rect x="10" y="70" width="10" height="10" fill="black"/>
  <rect x="10" y="85" width="10" height="10" fill="black"/>
  <rect x="10" y="100" width="10" height="10" fill="black"/>
  <rect x="10" y="115" width="10" height="10" fill="black"/>

  <rect x="140" y="70" width="10" height="10" fill="black"/>
  <rect x="155" y="85" width="10" height="10" fill="black"/>
  <rect x="170" y="100" width="10" height="10" fill="black"/>
  <rect x="185" y="115" width="10" height="10" fill="black"/>

  <!-- Center pattern -->
  <rect x="70" y="70" width="10" height="10" fill="black"/>
  <rect x="85" y="75" width="10" height="10" fill="black"/>
  <rect x="100" y="70" width="10" height="10" fill="black"/>
  <rect x="115" y="85" width="10" height="10" fill="black"/>
  <rect x="75" y="100" width="10" height="10" fill="black"/>
  <rect x="90" y="95" width="10" height="10" fill="black"/>
  <rect x="105" y="105" width="10" height="10" fill="black"/>
  <rect x="120" y="100" width="10" height="10" fill="black"/>

  <!-- Bottom pattern -->
  <rect x="70" y="140" width="10" height="10" fill="black"/>
  <rect x="85" y="155" width="10" height="10" fill="black"/>
  <rect x="100" y="170" width="10" height="10" fill="black"/>
  <rect x="115" y="150" width="10" height="10" fill="black"/>
  <rect x="75" y="180" width="10" height="10" fill="black"/>
  <rect x="90" y="165" width="10" height="10" fill="black"/>
  <rect x="105" y="175" width="10" height="10" fill="black"/>
  <rect x="120" y="160" width="10" height="10" fill="black"/>

  <!-- Right pattern -->
  <rect x="140" y="140" width="10" height="10" fill="black"/>
  <rect x="155" y="155" width="10" height="10" fill="black"/>
  <rect x="170" y="170" width="10" height="10" fill="black"/>
  <rect x="185" y="150" width="10" height="10" fill="black"/>
  <rect x="145" y="180" width="10" height="10" fill="black"/>
  <rect x="160" y="165" width="10" height="10" fill="black"/>
  <rect x="175" y="175" width="10" height="10" fill="black"/>
  <rect x="190" y="160" width="10" height="10" fill="black"/>
</svg>
